<svg xmlns="http://www.w3.org/2000/svg" viewBox="0 0 41.9 37" fill="#fff" width="20" height="18">
  <path d="M17.6 15.6a3.3 3.3 0 1 1 3.3 3.3v-.4a2.9 2.9 0 1 0-2.9-2.9 2.9 2.9 0 0 0 2.9 2.9v.4a3.33 3.33 0 0 1-3.3-3.3"/>
  <path d="M15 15.6a6 6 0 1 1 6 6v-.4a5.6 5.6 0 1 0-5.6-5.6 5.59 5.59 0 0 0 5.6 5.6v.4a6 6 0 0 1-6-6"/>
  <path d="M12.1 15.6a8.9 8.9 0 1 1 8.9 8.9V24a8.54 8.54 0 0 0 8.5-8.4 8.5 8.5 0 1 0-17 0A8.41 8.41 0 0 0 21 24v.4a8.77 8.77 0 0 1-8.9-8.8"/>
  <path d="M9.3 15.6A11.65 11.65 0 1 1 21 27.2v-.4A11.2 11.2 0 1 0 9.8 15.6 11.18 11.18 0 0 0 21 26.8v.4A11.63 11.63 0 0 1 9.3 15.6"/>
  <path d="M6.3 15.6A14.7 14.7 0 1 1 21 30.3v-.4A14.3 14.3 0 1 0 6.7 15.6 14.3 14.3 0 0 0 21 29.9v.4A14.66 14.66 0 0 1 6.3 15.6"/>
  <path d="M20.7 1.1h.4v11.4h-.4zM10.6 5.5l.3-.3 8 8-.3.3-8-8zm-4.1 9.9h11.4v.4H6.5zm4.1 10.3l8-8 .3.3-8 8-.3-.3zm10.1-7h.4v11.4h-.4zm2.314-.798l.283-.282 7.967 8.014-.284.282zM24.1 15.4h11.4v.4H24.1zM23 13.2l8.1-8 .2.3-8 8-.3-.3z"/>
  <path d="M18.7 16.5c.1 0 .1.1.1.2h.1a2.51 2.51 0 0 0 .4-.7.1.1 0 0 0 .1-.1c0-.1-.2-.2-.2-.3-.1.2-.3 0-.4.1v.1h.1v.2a.37.37 0 0 0-.3-.1c.1 0 0 0 0 .1a.75.75 0 0 0-.5.1c-.1 0-.1 0-.2-.1-.1.1-.1.2-.2.2l-.1-.1c.1-.1.2-.1.2-.2v-.3c.1-.1.1-.2.2-.2s.3.1.4 0l.1.1v.1c-.1.1-.2.1-.2.2s0 .1.1.1.1-.1.2-.1h.4c.1 0 .1-.3 0-.4v-.2c0-.1.2-.1.2 0v.1s0 .1.1 0v-.2a.35.35 0 0 0 .2.1h.2c.1 0 .1-.1 0-.2h-.1a.31.31 0 0 1-.2.1c-.1 0-.1-.1-.2-.1s-.2.1-.2 0-.1-.1-.1-.2l.1-.1a.37.37 0 0 0 .3-.1.35.35 0 0 1 .1-.2h.1a.37.37 0 0 0 .3-.1c.1 0 .2-.1.3-.2s.1-.1.2-.1a.1.1 0 0 1 .1-.1v-.5a.1.1 0 0 1 .1-.1h-.1s-.1-.1 0-.1.2 0 .2-.1a.19.19 0 0 0-.1-.3c-.1-.1-.2 0-.3 0a.1.1 0 0 1-.1.1c-.1 0-.2-.1-.1-.2v-.1h-.1l-.3.3v.1c0 .1 0 .2-.1.2h-.1c0 .1.2.1.1.2s-.2.1-.4.2a2.72 2.72 0 0 1-.9 0h-.5c-.1 0-.1.1-.2.2v-.2c0-.1-.1 0-.1-.1-.2-.4-.7-.3-1.1-.3a.1.1 0 0 0-.1.1c-.1.1-.2 0-.3 0l-.1.1c-.1 0-.2-.1-.3 0s-.1.1-.2.1v.1h-.1c-.1 0-.3 0-.3.1s0 .3-.1.3a.6.6 0 0 0-.4.1c-.1 0-.1.1-.2.1a2.45 2.45 0 0 0-.4 1.2v.1c-.2.4-.3.6-.6 1.1-.1.2-.2.6 0 .7s0 .2-.2.2-.4 0-.4-.2-.2-.1-.3-.1h-.4c-.2 0-.2.3-.3.4s-.3.1-.3.2v.2a.1.1 0 0 0-.1.1v.1c0 .2-.1.3 0 .5v.1a.9.9 0 0 1-.1.5c-.1.2-.3.2-.5.2h-1c-.1 0-.1-.1-.2-.1a.31.31 0 0 1-.1-.2c-.1-.1-.3 0-.4.1.1 0 0 .1 0 .1s-.2.1-.3.2-.2-.2-.2-.3-.1-.1-.2-.1v.1h-.1c-.1.1.1.1.1.1v.1h-.1a.1.1 0 0 1-.1.1c-.1 0-.1.1-.1 0v-.2h-.1c0 .1 0 .1-.1.1v.1h.2a.37.37 0 0 1 .1.3c0 .1 0 .2-.1.1s0-.2 0-.3h-.1c.1.2-.1.3.1.5s-.2.2-.1.2a.35.35 0 0 0 .2.1v-.1s.1-.1.1 0v.1H8v.4c0 .1.2 0 .2.1s-.1.1 0 .2a.1.1 0 0 1 .1.1v.1a.1.1 0 0 1 .1.1c.1 0 .1 0 .1-.1s.1-.1.1-.2 0-.1-.1 0V21c0-.1-.1-.1-.1-.2s.1 0 .2-.1a.1.1 0 0 1 .1.1v.1a.1.1 0 0 1 .1.1c.1 0 .1.1.2.2h.3v-.1l.1.1a.37.37 0 0 0 .1.3h.1l.1.1h.1a.1.1 0 0 1 .1.1c.1 0 .2 0 .2.1s.1.2.2.4a29772.51 29772.51 0 0 1 .2.2.37.37 0 0 0 .3.1.35.35 0 0 1 .2-.1h.1c.1.2.1.4.3.4s.1.1.2.2h.2a.1.1 0 0 0 .1.1c.1.1.2.1.2.2v.1c.1 0 .2-.1.2 0s.2.1.2.2h.1v-.1c0-.1.1 0 .2-.1s.1-.2.1-.2.2.1.3.2h.1c.1.1.1.3.2.3s.2.1.4.2.2.1.3.1h.1c.1 0 .1 0 .2-.1s.3-.1.4-.2l.1-.1c.2-.1.5.1.7 0s.1 0 .2-.1.2-.3.1-.4-.2-.5-.3-.7l-.3-.3h-.1c-.1 0-.1-.1-.1-.2a.1.1 0 0 1-.1-.1v-.3c-.1 0-.2-.1-.4-.1a.1.1 0 0 1-.1-.1v-.1a.37.37 0 0 1 .3-.1v-.3a.1.1 0 0 0-.1-.1c0-.1.1-.2 0-.3s-.2-.2-.2-.3a.1.1 0 0 1-.1-.1v-.5c0-.1-.1-.1 0-.2l.1-.1c.1 0 .1-.1.1-.2a.14.14 0 0 0-.2 0v-.3l-.1-.1v-.2s0-.1-.1 0v-.2c0-.1-.1-.2-.2-.1a.14.14 0 0 1-.2 0V18a.1.1 0 0 0 .1-.1.14.14 0 0 0 0-.2c-.1-.1-.2-.2-.1-.3-.1 0-.3 0-.3-.2s0-.3-.1-.4v-.3a.1.1 0 0 1 .1-.1c.2 0 .4 0 .4-.1s-.1-.3 0-.3.4 0 .6-.2c.1 0 .1-.1 0-.2a.35.35 0 0 0-.1-.2c-.1-.1-.2 0-.3-.2V15c0-.1.1-.1.2-.2s.3 0 .5.1l.1.1v.1c0 .2.1.4 0 .6s-.1.1-.1.2h.1c0 .1.1.3 0 .4s-.1 0-.3 0-.1 0-.1.1l.1.1c.4.1.5.1.9.2.1 0 .1.1.2.1h.3a.1.1 0 0 0 .1.1c.1.1.1.3.2.3a.14.14 0 0 1 .2 0c-.1.1 0 .2 0 .3s.2.1.3.2.2.1.2 0-.1-.2 0-.3c.1.2 0 .4.1.6.1.1.1.2.2.2s.1-.1.1-.2v-.1c0-.1 0-.1.1-.2s.1-.2.1-.3v-.1c0-.1.2-.2.3-.2V17c.1 0 0-.2.1-.2s.1-.1.1-.2.1-.1 0-.1c.5.1.5 0 .5 0"/>
  <path d="M14.5 16.3h-.1v.1l.1.1v.3c0 .1.1.2.2.1s.2-.3.1-.4-.1-.1-.3-.2m-.2.9c.1.2.2.1.3.1v-.1c-.1-.1-.1-.1-.3 0 .1-.1 0-.1 0-.1v.1m.3.4c0-.2-.1-.2-.2-.1s0 .3.1.4a.1.1 0 0 0 .1.1c0 .1.1 0 .2 0s0-.1.1-.1c-.1-.1-.2-.3-.3-.3m-.3-.8c0-.1-.1-.1 0 0-.1 0-.1 0-.1.1s0 .2.1.2a.1.1 0 0 0 .1-.1c-.1-.1-.1-.1-.1-.2m.4.6l.1-.1h.1v-.1c-.1 0-.1.1-.2.1s0 .1 0 .1m-.1.9c0 .1 0 .1.1.1h.1v-.1h-.2m.2.7c0-.1.1-.1 0-.2h-.1a.35.35 0 0 0 .1.2m-6.3 2.5v.1h.2c-.1 0-.1-.2-.2-.1m.6.7c-.1.1.1.2.2.2v-.2a.14.14 0 0 0-.2 0m.3.4c0 .2.1.3.2.3.1-.2 0-.3-.2-.3m10.1-5.2a1.27 1.27 0 0 1 .6-.1c.4 0 .4-.6.6-.9a.6.6 0 0 0-.1-.4c-.1-.2-.6 0-.7-.2s.3.1.3-.1 0-.1-.1-.2h-.2a2 2 0 0 0-.4.8 5.38 5.38 0 0 0-.9 1.2c0 .1 0 .1.1.2.3.1.6-.2.8-.3m1.8-1c-.1 0-.1 0-.2.1v.2h.1c0-.1 0-.1-.1-.1.2-.1.2-.2.2-.2M20 17.9c.1.2.5.1.5 0s-.3-.2-.4-.2.1.1-.1.2m.5 1.3a.37.37 0 0 0 .1-.3l-.3.3h.2m1.8-2.7v-.1h-.2c-.1 0-.1-.1-.1-.2s-.1-.2-.1-.3-.1.2-.1.2c.2.2.3.5.5.4m-2.4-1.2c-.1-.1-.1 0 0 0-.1.1 0 .1 0 0M8.1 19.1A.1.1 0 0 0 8 19h-.1v.1a.14.14 0 0 0 .2 0m.7 0c.1 0 .2-.1.1-.2s-.3 0-.2.1c-.1.1 0 .2.1.1m11.4-7c0-.1.1-.1.1-.2h-.1c-.1 0-.1.1 0 .2m.3-.1s.1-.1 0-.1h-.1a.1.1 0 0 0 .1.1m-1.1 2.6c0 .1.2.3.3.2a.14.14 0 0 0 0-.2.19.19 0 0 0-.3 0m.3.8v-.1h-.3a.1.1 0 0 0 .1.1c0-.1.1 0 .2 0m-.3.2c-.1 0 0 .1 0 .2s.1 0 .2-.1.1-.2 0-.2-.2 0-.2.1m-.2-.3c0 .1-.1.2 0 .3s.1 0 .1 0 0-.2.1-.2h-.1v-.1h-.1m7.6 7.1c.1 0 0-.1 0 0"/>
  <path d="M21 18.5l-.1-.1c0-.1-.1.1-.2 0 .1.1 0 .1-.1.2a.1.1 0 0 0 .1.1c0 .1-.1.1 0 .2l-.1.1s-.1.1 0 .1.2-.1.3-.1h.1c.1 0 .1-.1.2-.2H21s-.1 0 0-.3m.6 1.9c0 .1.1.1 0 0 .1 0 .1-.1.1-.2h-.1v.2m.1-.2c.1 0 0-.1 0-.1h-.1a.1.1 0 0 0 .1.1m.6.3c-.1 0-.1-.1-.2 0H22v.1c.2-.1.2-.1.3-.1m1-.1v-.1c-.1 0-.2.1-.3 0v.1h-.1c.2.1.3 0 .4 0m.4-.4c0 .2.2.1.2 0s0-.1-.2 0l.1-.1a.1.1 0 0 1-.1.1m4.8-3.2c0 .1.1.1.2.1a.37.37 0 0 0 .3-.1.27.27 0 0 0-.3-.3c-.2.1-.2.2-.2.3m0 5.1h-.1c-.1.5-.6 1.2 0 1.5.2.2.5-.1.6-.3s0-1-.5-1.2M27 19.7c-.1 0-.1.2 0 .2a.1.1 0 0 0 .1-.1v-.1H27m.4 5.1v.2s.2-.1 0-.2m2.3-11.7h-.1v.2c-.2.4-.7.9-.4 1.4a1.38 1.38 0 0 0 .3-.4 10.37 10.37 0 0 0 .4-1s-.1-.2-.2-.2m-.9 1.8c0 .1 0 .1.1.1s.1-.1 0-.1 0-.1-.1 0m-5.1-3.1c-.1-.2-.2 0-.3 0l-.1-.1h-.1c-.1 0 0 .2.1.2s.1-.1.1 0 0 .3.2.2.2-.1.3-.1.1-.1.1-.2.2-.1.3 0a.1.1 0 0 0 .1.1c0 .1.1.1.2.1a.37.37 0 0 0 .3-.1.19.19 0 0 0 0-.3h-.2c-.1 0-.1-.1-.2-.1-.4-.1-.6.2-.8.3m-1 .2h.3c0-.2-.2-.1-.3-.1.1-.1.1 0 0 .1"/>
  <path d="M23.1 12.6c.1-.1.3-.2.4-.3v-.1c0-.1-.1-.1-.2-.2a.1.1 0 0 1-.1.1c-.1.1-.2.1-.2.2v.2c.1.3.1.2.1.1m-1.5-1v.1c.1.1.1 0 0-.1M18 9.4a.6.6 0 0 0 .4.1l.1-.1c-.1-.1-.2 0-.2-.1h-.1c-.1-.1-.2 0-.2.1m9.1 1.6c0 .1-.1 0-.2.1v.1c.1.1.2 0 .3 0s.1-.1.1 0v.1a.1.1 0 0 0-.1.1h-.3v.2c-.1.1-.4.2-.3.4a.75.75 0 0 0 .5.1c0-.2.1-.2.2-.3a.1.1 0 0 0-.1-.1v-.1a.1.1 0 0 0 .1-.1v-.1a.35.35 0 0 0 .2-.1c0-.1-.1-.2-.1-.3a.1.1 0 0 1 .1-.1v-.1h-.1s-.1 0 0 .1a.37.37 0 0 0-.3.1c0-.2.1 0 0 0m-1 1c0 .1.1.1.2 0h-.2m1.4-.2c-.1.1.1.1.2.1 0-.1-.1-.1-.2-.1m.4-.5c-.1 0-.1.1 0 0m-2.3-4c.1.1.2.1.2.2v.4l.1.1v.2c0 .1.1.3.1.4a.1.1 0 0 1 .1.1c0 .1 0 .1.1.2s.1 0 .2.1.2.3.3.4a.1.1 0 0 1 .1.1v.1c.2 0 .5.1.4.4.1-.1.2-.1.2-.2s.1-.3 0-.4l-.2-.2V9a.1.1 0 0 0-.1-.1c0-.1-.1-.3.1-.3v-.1H27v-.1a.35.35 0 0 0-.4-.4c-.1-.1-.1-.1-.2-.1h-.2a2.09 2.09 0 0 1-.4-.6.19.19 0 0 0-.3 0c.1-.1.1-.1.1 0"/>
  <path d="M24.7 7.6a.14.14 0 0 0 0 .2h.4a.1.1 0 0 0 .1-.1c.1-.1.2 0 .4-.1 0 .1 0 .1.1.1s0-.2-.1-.2-.1-.2-.2-.3h-.1c0 .2-.1.1-.3.2v.1-.1h-.2a.35.35 0 0 1-.1.2m-2.3-3.9c-.1-.2-.3-.4-.2-.7a1.39 1.39 0 0 0 .9 0c.2-.1.5 0 .7-.1v-.2c-.3.1-.5-.2-.7-.1a3.18 3.18 0 0 1-.9.3c-.2.1-.9 0-.9.4.3 0 .7 0 .9.3 0 .1.1.1.2.1m1 1.5a.4.4 0 0 0 .4.2c0-.1 0-.1-.1-.2h-.3m-.3.5c-.1 0 0 .1.1.2 0-.1.1-.3-.1-.2m-.2-.3c.1-.1 0-.2-.1-.2v.1l.1.1m.9 1.1a.31.31 0 0 0 .1-.2h-.1a.14.14 0 0 0 0 .2m.3 0v.1c.1.1.1 0 0-.1.1 0 0 .1 0 0m-.1.3l.1-.1c0-.1-.1-.1-.2 0s.1 0 .1.1m.1 0c0 .1.1.2.2.1s.1-.1 0-.1zm.5.2a.35.35 0 0 0-.1-.2s-.1.1 0 .1 0 .1.1.1m.1.3h.1v-.2h-.2v.1l.1.1m-.2.2c.1-.1.1-.1 0-.2h-.1a.1.1 0 0 1-.1.1c.1.1.1.1.2.1m-.3-5c-.1-.1-.1-.1-.2-.1.1.1.1.2.2.1M27.6 5c.1.1.2 0 .2.1s.1.2.2.2.1 0 .1-.1 0-.4-.2-.4h-.5c-.1 0-.1.1-.1.2a.19.19 0 0 1 .3 0"/>
  <path d="M31.7 10.2c-.1-.1-.1-.3-.2-.4s-.2-.1-.3-.2v-.2l-.1-.1c-.1-.2-.1-.3-.3-.3 0-.2-.1-.2-.3-.3v-.1a.1.1 0 0 0-.1-.1h-.1c-.1-.1-.2-.2-.2-.3s-.2-.2-.3-.3l-.1-.1c-.1 0-.2 0-.2-.1s-.2-.3-.3-.4 0-.4-.1-.7c0-.1-.1-.1-.2-.1a.1.1 0 0 1-.1-.1c-.1-.1 0-.3-.1-.4s-.3-.3-.4-.5a.37.37 0 0 0-.3-.1h-.1l-.1-.1c-.1-.1-.2-.2-.3-.2s-.4 0-.6-.1-.4 0-.5.2-.3.2-.5.2 0 .1 0 .2-.2.2-.1.2h.2a.1.1 0 0 1 .1.1c.1.1.2.2.2.3a.14.14 0 0 0 0 .2.37.37 0 0 1 .1.3c0 .1.1 0 .1 0a.25.25 0 0 1 .1.4v.3c.1.2.1.4.2.5l.1-.1c.1 0 .1-.1.2-.1.2-.2.4.2.5.3s0 .4.1.6a1.38 1.38 0 0 0 .3.4.31.31 0 0 0 .1.2l.1.1a.1.1 0 0 1 .1-.1h.1c.2.2.2.6.5.6a.1.1 0 0 0 .1.1c.1 0 .1-.1.2 0a.35.35 0 0 0 .1.2h.3c.1 0 .1.1.2.2l.1.1c.2.2.3.5.5.7s.2.2.3.1v-.1a.22.22 0 0 0 .2-.2l.3-.3c.1-.1.2-.1.3-.2.3 0 .2-.2.2-.2m-4.2.1c0 .1.1.1.2.1s.1.2.2.2.1-.1.1-.2h.1c.1-.1 0-.3-.1-.4s-.1-.2-.3-.2-.1 0-.2.1 0 .2 0 .3v.1m.7.4c-.1.2 0 .4 0 .6s-.2.1-.2.2a.14.14 0 0 0 0 .2c0 .1.2.1.3.2a1.17 1.17 0 0 1 .6.6.37.37 0 0 1 .1.3c.1.1.2.1.2.2s.1.1.1 0a.3.3 0 0 0 0-.4c-.1-.1-.1-.1-.1-.2a2.35 2.35 0 0 0-.2-.8l-.3-.3v-.1c0-.1.1-.1.1-.2s-.1-.2-.2-.3c-.2-.1-.3-.1-.4 0m1.5 1.4v-.2c0-.2-.2-.2-.3-.2h-.1v.2a2.93 2.93 0 0 1 .3 1c0 .1.3 0 .3-.1v-.2c0-.1-.1-.1-.1-.2s-.1-.2-.1-.3m-.4-.9c-.1.1 0 .2 0 .3.1 0 .1 0 .1-.1s0-.1-.1-.2m0-.2c0-.1 0-.1-.1-.1s-.1.1-.2.1 0 .1.1.2c.2 0 .3-.1.2-.2m-.5-.5c.1.1 0 .2.1.2s.2.1.3 0 0-.1-.1-.1v-.1H29c-.1-.1.1-.1 0-.2v-.1h-.1v.1c-.1.1-.2.2-.1.2m-.1-.6c-.1 0-.2 0-.2-.1h-.1s-.1.1 0 .1a.1.1 0 0 1 .1.1c0 .1.1 0 .1.1s.1.1.1 0V10s.1-.1 0-.1m-7.1 4.6a.14.14 0 0 0 0-.2.1.1 0 0 0-.1.1c.1 0 .1 0 .1.1"/>
  <path d="M29.4 13.2a.6.6 0 0 0-.4.1c-.2.1-.3.4-.4.6a.52.52 0 0 1-.4.2.1.1 0 0 1-.1-.1v-.2l.1-.1c.1-.1 0-.2 0-.3s-.3-.4-.5-.3-.3.3-.5.5c-.1-.1-.2-.2-.2-.3v-.1c.1 0 .2.2.2.1s0-.2-.1-.2-.1-.1-.2-.1-.1-.1-.2-.2 0-.3-.1-.3a.37.37 0 0 1-.3-.1h-.2v-.1c.1 0 .3 0 .2-.2s-.1-.1-.2-.1H26v.3a.37.37 0 0 1-.3.1h-.1c-.1 0-.2-.1-.3-.1s-.1.2-.2.2-.1 0-.2.1-.1.2 0 .3v.1a.1.1 0 0 1-.1-.1c0-.1-.1-.2-.1-.3s.1-.2.2-.3v-.2c-.1-.1-.1-.1-.2-.1s-.3.4-.5.3-.2-.2-.3-.2-.1-.1-.2 0a2.19 2.19 0 0 1-.5.3c-.1.1-.3.2-.3.4a.38.38 0 0 1-.6.1c-.1-.1-.2-.2-.3-.2s-.2.2-.3.2-.1 0-.2-.1v-.1l.6-.3c.1 0 .1-.1.1-.2V12a.68.68 0 0 0-.6.4.1.1 0 0 1-.1.1c-.2 0-.3.1-.5 0l-.1-.2c-.1.1-.1.2-.2.2l-.1.1c-.1.1.1.3 0 .4s-.2.1-.3.1v.2c0 .1.1 0 .1.1s.1.3.2.3.3 0 .5.1.2.1.3.2.1.1.1.2a.1.1 0 0 0 .1.1h.2c.1 0 0 .1.1.2a.76.76 0 0 0 .1.4s0 .2-.1.2a.1.1 0 0 0-.1.1v.3h.1c.1.1.1.2.2.3l.1.1a.1.1 0 0 0-.1.1.14.14 0 0 0 .2 0c.1 0 .1-.1.2-.1a.1.1 0 0 0 .1-.1.35.35 0 0 1 .1.2c-.1.1-.3 0-.4.1s-.1 0-.2.1a.1.1 0 0 0 .1.1c.2.1.1.4-.1.6v.2H22c-.2 0-.5-.1-.7 0s-.1.1-.1.2a.1.1 0 0 0-.1.1v.2c-.2.2-.2.5-.3.7a.1.1 0 0 0 .1.1c.1 0 .1-.1.2-.1s.1.2.1.2.2.1.2 0a.37.37 0 0 1 .1-.3c0-.1-.1-.2-.1-.3s0-.2.1-.2a.1.1 0 0 1 .1.1v.4a.14.14 0 0 1 0 .2.1.1 0 0 1-.1.1v.2c-.1.1-.1.1-.1.2-.2 0-.4-.1-.3-.3-.1 0-.1 0-.2.1v.3c-.1.1-.1.2-.2.3v.1c-.1.1-.2.2-.3.2-.1.1-.2 0-.2.1s.1.2.1.3 0 .1-.1.2h-.4a.37.37 0 0 1-.1.3c-.1.1 0 .2.1.2s.1.2.2.2.1.1.2.1a.22.22 0 0 0 .2-.2c0-.1.1 0 .2 0h.1a.14.14 0 0 0 0-.2l.4-.4c.1 0 .1-.1.2-.1s.1.1.2.1.1.1.2.1h.1c.1 0 .2.2.3.2a.37.37 0 0 0-.1-.3c-.1-.1-.2-.2-.3-.2v-.1c.1.1.1.1.2.1s.1.2.2.3.1.1.2.1a.37.37 0 0 0 .3-.1c0-.1 0-.1-.1-.1s0-.1.1-.2 0-.2 0-.3v-.1c.1-.1 0-.2 0-.4 0 .1.1.1.2.1a.22.22 0 0 0 .2-.2.19.19 0 0 1 .3.1c0 .1 0 .2-.1.2a.76.76 0 0 0-.5.2l-.1.1c-.1.1-.1.1-.1.2l-.1.1a.1.1 0 0 1 .1.1.37.37 0 0 0 .3-.1v-.2c.1 0 .1-.1.2-.1s.3.2.2.3h-.1c-.1.1-.2.3-.3.3s-.5.1-.7.2-.1.2-.2.2-.2.1-.3 0c0 .1-.2 0-.3 0a.31.31 0 0 0-.1-.2h-.1v-.1h-.8a.1.1 0 0 0-.1.1l-.1.1a.37.37 0 0 1-.3.1.37.37 0 0 0-.3.1c-.2 0-.3.2-.4.3a.37.37 0 0 1-.3.1v.1c-.2 0-.3.3-.4.5v.2c-.1.1-.1.3-.3.4v.1c.1.2.3.3.5.5a.1.1 0 0 0 .1.1c.1.1.1.2.2.4s.3.2.5.2a.35.35 0 0 1 .2.1c.2 0 .5.1.7 0 .3.1.7 0 1 .1.1 0 .1.1.1.2s.2.3.3.4a.6.6 0 0 0 .4.1.31.31 0 0 0 .1.2c0 .1 0 .1.1.2s.1.1.1.2-.1.2-.1.4v.2a2.65 2.65 0 0 0 .6.5s.1 0 0 .1c.1 0 .1.1.2.2s0 .1.1.2l.3.3a.6.6 0 0 0 .4.1.1.1 0 0 1 .1.1c.1 0 .3.1.4 0s.1-.2.2-.2a.6.6 0 0 1 .4-.1.1.1 0 0 0 .1-.1c0-.1.1-.1.1-.2s.2-.1.3-.1.3-.3.5-.4.4-.1.5-.2 0-.4 0-.6.1-.2.1-.3v-.5c0-.1-.1-.2-.1-.3s.1-.1.2-.1.1-.3.2-.4a.1.1 0 0 0 .1-.1c.1 0 0-.1 0-.2a.1.1 0 0 1-.1-.1 1.21 1.21 0 0 0-.5-.5.1.1 0 0 1-.1-.1v-.1c-.1 0 0-.1-.1-.1h.1c.1-.1.1-.3.2-.4a.1.1 0 0 0 .1-.1v-.3c-.1-.1 0-.3 0-.4a2.2 2.2 0 0 0-.1-.8c0-.1-.1-.1-.2-.1a.1.1 0 0 1-.1.1.31.31 0 0 1-.1.2c0 .1-.2.1-.2.2s0 .1-.1.2l-.1.1c.4-.3.3-.3.3-.2h-.3a14.24 14.24 0 0 0-1.6-.5h.3c.1 0 0-.1 0-.1s.2.1.3.2.5.1.7.2.3.2.5.2.3-.1.4-.1v-.1c.1-.1.2-.2.2-.3v-.3l.1-.1v-.4a.1.1 0 0 0 .1-.1v-.3a.75.75 0 0 0-.1-.5c0-.1-.1-.1-.2-.1a.1.1 0 0 1-.1.1c-.1 0-.2 0-.2.1a.1.1 0 0 0-.1.1.52.52 0 0 1-.4.2c-.1 0-.2 0-.2-.1s.2-.2.4-.2l.1-.1a.22.22 0 0 1 .2-.2h.2c.1 0 .1-.1.2-.1a.31.31 0 0 1 .1-.2c0-.1.1-.1.2-.2s.1-.4.2-.6 0 .1.1.2a.19.19 0 0 0 .3 0c.1-.1 0-.2.1-.2h.1c.1 0 .1.1.2.1a.35.35 0 0 1 .2-.1h.3c.2-.1.6 0 .6-.2a.86.86 0 0 0-.6-.7c-.2-.1-.1-.4-.3-.6-.1 0 0-.1-.1-.2l-.1-.1-.1-.1v-.5c0-.1.1-.1.2-.1s.2-.1.2-.2v-.4l.1-.1c.2 0 .5.1.7-.1.1 0 .1-.1.1-.2a1 1 0 0 0 .4-.8c-.1.1 0 .1 0-.1.1.1.1 0 0 0m-4.5 5.4c-.1.1-.1.1-.2 0s-.1-.1-.1-.2-.1 0-.1.1h-.2c0-.1-.1-.1-.1-.2s0-.2.1-.2.1 0 .1.1v.1c.1.1.1 0 .2 0h.3c0 .1.1.2 0 .3M15.6 36c1.3-1.9 5.2-3.9 9-3.9s8 2.2 9.6 1a8.38 8.38 0 0 1-5.1 1.4c-3.4 0-4.7-1.7-7-1.7s-4.8 1.9-5.9 3.5zm12.1-4.2a5.34 5.34 0 0 0 1.7-1.9 14.44 14.44 0 0 1 3.7-4.4s-1.7 5.5-3.5 5.7c0 0-.3.2.2.1s2.8-.9 3.6-1.1a8.58 8.58 0 0 0 3.3-1.1 1.48 1.48 0 0 1 .8-.4s-2.2 3.7-6.2 3.7a17.1 17.1 0 0 1-3.6-.6"/>
  <path d="M32.4 29.9a3.92 3.92 0 0 0 .5-1.7 14.64 14.64 0 0 1 2.7-6.3s.3 4.3-1.9 7c0 0-.1.4.1.1a22.93 22.93 0 0 1 4.6-3.9s1.5-1.3 1.6-1.7c0-.1-1.2 6.1-7.6 6.5"/>
  <path d="M36.1 25.8a5.62 5.62 0 0 0 .2-1.3c0-.6-.3-2.6-.3-3.5a7.53 7.53 0 0 1 .8-3.7 4.5 4.5 0 0 0 .2 1.4 12.29 12.29 0 0 1 .5 2.5 10.27 10.27 0 0 1-.4 2.5 2.13 2.13 0 0 0 .6-.8 12.81 12.81 0 0 1 2.2-2.8 5.62 5.62 0 0 0 1.4-2.1 6.08 6.08 0 0 1-1.2 4.1c-1.5 2.1-2.1 1.8-2.9 2.6a11.41 11.41 0 0 1-1.1 1.1"/>
  <path d="M38.4 20.9a3.87 3.87 0 0 0-.3-1.6 10.5 10.5 0 0 1-1.3-5.9s.2-.2.6 1 1 1.6 1.2 2.8a12 12 0 0 1 .2 1.7s.1.2.1 0a9 9 0 0 1 .8-3.2c.7-1.5 1.6-2.9 1.5-3.9 0 0 .4 0 .3 1.6.1 1.6-.3 4.4-3.1 7.5"/>
  <path d="M39.2 16.1a12 12 0 0 0-.8-1.5c-.3-.4-2.7-3.7-2.9-5.3 0 0 .2-.1.4.3a12.94 12.94 0 0 0 1.5 1.7 5 5 0 0 1 1.5 2.8s.1.1-.1-2.1.7-3.7-.1-5.3c0 0 1.1.2 1.7 4.8a9.68 9.68 0 0 1-.9 3.6c.1-.1-.2 1-.3 1"/>
  <path d="M38.3 11a9.94 9.94 0 0 0-1.6-1.3 9.58 9.58 0 0 1-3.3-4.3s.1-.2.8.7c.5.7 1.1.4 2.7 2.4 0 0 .2.5.3.4s-.1-.5-.1-.5-.1-1.2-.1-1.6a15.83 15.83 0 0 0-.9-3.1 5.82 5.82 0 0 1 2.5 4.7c-.1 0-.2 2.5-.3 2.6"/>
  <path d="M36.5 7.3s.1-3-3.8-4.6c0 0 1.4 2.8 2.4 3.5a11.57 11.57 0 0 1 1.4 1.1M26.3 36c-1.3-1.9-5.2-3.9-9-3.9s-8 2.2-9.6 1a8.38 8.38 0 0 0 5.1 1.4c3.4 0 4.7-1.7 7-1.7s4.8 1.9 5.9 3.5zm-12.1-4.2a5.34 5.34 0 0 1-1.7-1.9 14.44 14.44 0 0 0-3.7-4.4s1.7 5.5 3.5 5.7c0 0 .3.2-.2.1s-2.8-.9-3.6-1.1a8.58 8.58 0 0 1-3.3-1.1 1.24 1.24 0 0 0-.8-.4s2.2 3.7 6.2 3.7a17.1 17.1 0 0 0 3.6-.6"/>
  <path d="M9.5 29.9a3.92 3.92 0 0 1-.5-1.7 14.64 14.64 0 0 0-2.7-6.3s-.3 4.3 1.9 7c0 0 .1.4-.1.1a22.93 22.93 0 0 0-4.6-3.9S2 23.8 1.9 23.4c0-.1 1.2 6.1 7.6 6.5"/>
  <path d="M5.8 25.8a5.62 5.62 0 0 1-.2-1.3c0-.6.3-2.6.3-3.5a7.53 7.53 0 0 0-.8-3.7 4.5 4.5 0 0 1-.2 1.4 12.29 12.29 0 0 0-.5 2.5 10.27 10.27 0 0 0 .4 2.5 2.13 2.13 0 0 1-.6-.8A12.81 12.81 0 0 0 2 20.1 5.62 5.62 0 0 1 .6 18a6.08 6.08 0 0 0 1.2 4.1c1.5 2.1 2.1 1.8 2.9 2.6.1 0 1 1.1 1.1 1.1"/>
  <path d="M3.5 20.9a6.93 6.93 0 0 1 .3-1.6 10.5 10.5 0 0 0 1.3-5.9s-.2-.2-.6 1-1 1.6-1.2 2.8a8.18 8.18 0 0 0-.3 1.7s-.1.2-.1 0a9 9 0 0 0-.8-3.2C1.4 14.2.5 12.8.6 11.8c0 0-.4 0-.3 1.6a11 11 0 0 0 3.2 7.5"/>
  <path d="M2.7 16.1a12 12 0 0 1 .8-1.5c.3-.4 2.7-3.7 2.9-5.3 0 0-.2-.1-.4.3a12.94 12.94 0 0 1-1.5 1.7A5 5 0 0 0 3 14.1s-.1.1.1-2.1-.7-3.7.1-5.3c0 0-1.1.2-1.7 4.8a9.68 9.68 0 0 0 .9 3.6c-.1-.1.2 1 .3 1"/>
  <path d="M3.6 11a9.94 9.94 0 0 1 1.6-1.3 9.58 9.58 0 0 0 3.3-4.3s-.1-.2-.8.7c-.5.7-1.1.4-2.7 2.4 0 0-.2.5-.3.4s.1-.5.1-.5a13.88 13.88 0 0 0 .3-1.7A15.83 15.83 0 0 1 6 3.6a5.82 5.82 0 0 0-2.5 4.7 12.21 12.21 0 0 0 .1 2.7"/>
  <path d="M5.4 7.3s-.1-3 3.8-4.6c0 0-1.4 2.8-2.4 3.5a11.57 11.57 0 0 0-1.4 1.1"/>
</svg>
