<svg height="264" viewBox="0 0 400 264" width="400" xmlns="http://www.w3.org/2000/svg" xmlns:xlink="http://www.w3.org/1999/xlink"><linearGradient id="a" gradientUnits="userSpaceOnUse" x1="4.766" x2="50.556999" y1="37.385502" y2="37.385502"><stop offset="0" stop-color="#eb5c6d"/><stop offset=".2429" stop-color="#c8738b"/><stop offset=".4999" stop-color="#9d81a6"/><stop offset=".7211" stop-color="#7386b9"/><stop offset=".8949" stop-color="#4f88c4"/><stop offset="1" stop-color="#3d88c7"/></linearGradient><path d="m0 0h400v264h-400z" fill="#fff" opacity=".999982" stroke-width="1.88976"/><g transform="translate(11.230341 58.535699)"><path d="m20.07438 54.500904c0-8.960181-1.086083-10.860825-1.086083-12.761469 0-2.172166 7.874098-2.986727 10.046263-2.986727 2.986727 0 2.986727 3.529768 3.529769 5.701933 1.900644-3.529768 4.61585-6.788016 9.774742-6.788016 4.344331 0 5.158892 2.986727 5.158892 4.887371 0 1.629124-1.086082 7.602578-2.715206 7.602578-1.357603 0-2.443686-.814562-4.34433-.814562-3.801289 0-5.973454 2.715207-7.059536 4.615851v28.781187c0 1.900644-1.629124 2.986727-5.430413 2.986727h-2.443686c-3.801289 0-5.430412-1.086083-5.430412-2.986727z" fill="#5e5e5e" stroke-width="2.71521"/><path d="m51.299252 42.010955c-.27152-.543041-.27152-1.086082-.27152-1.357603 0-2.443686 7.331057-2.172165 7.331057-2.172165 2.443685 0 4.887371.543041 5.158892 1.629124l7.059536 27.695104 7.059537-27.423584c.27152-1.357603 2.172165-1.900644 4.887371-1.900644h2.172165c2.443686 0 4.615851.543041 4.887371 1.900644l6.516495 27.695105 7.602574-27.695105c.27152-1.357603 2.17217-1.900644 4.88738-1.900644h.27152c3.80129 0 5.70193.814562 5.70193 2.443686 0 .27152 0 .814562-.27152 1.357603l-10.58931 41.542656c-.27152 1.357604-2.44368 1.900645-4.887367 1.900645h-4.34433c-2.986727 0-4.615851-.543041-4.887372-1.900645l-6.516495-25.251418-6.244974 25.251418c-.271521 1.357604-2.443686 1.900645-4.887372 1.900645h-4.34433c-2.986727 0-4.615851-.543041-4.887371-1.900645z" fill="#5e5e5e" stroke-width="2.71521"/><g transform="matrix(2.7152063 0 0 2.7152063 -8.163766 -16.637501)"><path d="m50.5 32.5c-.3-2.1-2.9-3.7-4.5-4 .6.4 1.2.8 1.7 1.3.9.9 1.3 1.9 1 3.2-.3 1.2-1 2.1-1.9 3-2 1.9-4.5 3.2-7.1 4.3-4.6 1.9-9.5 2.9-14.4 3.4-3.3.3-6.5.3-9.8-.3-1.8-.3-3.6-.8-5.2-1.9s-2.1-2.5-1.5-4.1l-.7-2.4c-.7.5-2 1.6-2.8 3.2-1 1.9-.6 3.7 1.1 5.1 1.5 1.3 3.4 1.9 5.2 2.3 4 .9 8.1.9 12.2.5 4.4-.4 8.7-1.2 12.9-2.6 3.5-1.1 6.8-2.5 9.8-4.6 1.3-.9 2.4-1.9 3.2-3.2.6-1.1 1-2.1.8-3.2z" fill="url(#a)"/><g fill="#5e5e5e"><path d="m56.3 37.5c-.9 0-1.4-.3-1.4-.8v-7.7c0-.8 0-1.4-.1-1.9 0-.4-.1-.8-.1-1s-.1-.4-.1-.6c0-.1.1-.3.3-.4s.5-.2.8-.2c.3-.1.6-.1.9-.1h.6c.2 0 .4.1.5.3s.2.4.2.6.1.5.1.7c.3-.5.8-.9 1.4-1.3s1.3-.6 2-.6c1.1 0 2 .3 2.6 1 .6.6.8 1.6.8 3v8.2c0 .5-.5.8-1.4.8h-.6c-.9 0-1.4-.3-1.4-.8v-7.7c0-.5-.1-.8-.3-1.1s-.6-.4-1.1-.4-.9.2-1.2.5-.5.6-.7.9v7.8c0 .5-.5.8-1.4.8z"/><path d="m70.8 37.7c-1.1 0-2-.3-2.6-1-.6-.6-.8-1.6-.8-3v-8.2c0-.5.5-.8 1.4-.8h.6c.9 0 1.4.3 1.4.8v7.7c0 .5.1.8.3 1.1s.6.4 1.1.4.9-.2 1.2-.5.5-.6.7-.9v-7.8c0-.5.5-.8 1.4-.8h.5c.9 0 1.4.3 1.4.8v7.7c0 .8 0 1.5.1 1.9 0 .4.1.8.1 1s.1.4.1.6c0 .1-.1.3-.3.4s-.5.2-.8.2c-.3.1-.6.1-.9.1s-.5 0-.6 0c-.2 0-.4-.1-.5-.3s-.2-.4-.2-.7-.1-.5-.1-.7c-.3.5-.8.9-1.4 1.3-.7.5-1.4.7-2.1.7z"/><path d="m81.4 37.5c-.9 0-1.4-.3-1.4-.8v-7.7c0-.8 0-1.4-.1-1.9 0-.4-.1-.8-.1-1s-.1-.4-.1-.6c0-.1.1-.3.3-.4s.5-.2.8-.2c.3-.1.6-.1.9-.1h.6c.2 0 .4.1.5.3s.2.4.2.6.1.5.1.7c.3-.5.8-.9 1.4-1.3s1.3-.6 2-.6c.5 0 1 .1 1.4.2s.7.3 1 .6.5.6.6 1c.4-.5.8-.9 1.5-1.3.6-.4 1.3-.6 2.1-.6.6 0 1.1.1 1.5.2.4.2.8.4 1 .7.3.3.5.7.6 1.2s.2 1.1.2 1.8v8.2c0 .5-.5.8-1.4.8h-.6c-.9 0-1.4-.3-1.4-.8v-7.7c0-.5-.1-.8-.3-1.1s-.6-.4-1.1-.4c-.3 0-.6.1-.9.2-.2.2-.4.4-.6.6s0 .7-.1.9-.1.3-.2.3v-2c.1.2.1.4.1.6v.6 8.1c0 .5-.5.8-1.4.8h-.5c-.9 0-1.4-.3-1.4-.8v-7.7c0-.5-.1-.8-.3-1.1s-.6-.4-1.1-.4c-.2 0-.4 0-.6.1s-.4.2-.5.4-.3.3-.4.5-.2.3-.3.5v7.8c0 .5-.5.8-1.4.8z"/><path d="m105.7 37.7c-.7 0-1.3-.2-1.9-.5-.5-.3-.9-.8-1.2-1.3-.1.3-.2.7-.3 1s-.3.4-.4.5c-.2.1-.5.1-.8.1h-.3c-.9 0-1.4-.3-1.4-.8v-16.7c0-.5.5-.8 1.4-.8h.6c.9 0 1.4.3 1.4.8v5.4c.2-.2.6-.3 1-.5s.9-.2 1.4-.2c1.5 0 2.7.6 3.6 1.8.8 1.2 1.3 2.8 1.3 4.7 0 1.4-.2 2.6-.6 3.6s-.9 1.7-1.5 2.2-1.5.7-2.3.7zm-1-3c.6 0 1.1-.3 1.4-.9s.5-1.5.5-2.7-.2-2.1-.5-2.7-.9-.9-1.6-.9c-.4 0-.7 0-.9.1-.3.1-.5.2-.7.3v5.4c.2.4.5.7.8 1 .2.3.6.4 1 .4z"/><path d="m117.7 37.7c-2.1 0-3.6-.6-4.6-1.8s-1.4-2.7-1.4-4.7c0-1.6.2-2.9.7-3.8.5-1 1.1-1.7 2-2.1.8-.4 1.8-.7 2.9-.7 1.2 0 2.2.3 2.9.9s1.2 1.3 1.6 2.3c.3.9.5 2 .5 3.1 0 .1-.1.3-.2.5s-.3.4-.5.6-.3.3-.4.3h-5.9c.1 1 .3 1.6.8 2s1.1.5 1.8.5c.5 0 .9-.1 1.3-.2s.7-.3.9-.4.4-.2.5-.2c.2 0 .3.1.5.4.2.2.3.5.5.8.1.3.2.5.2.7 0 .3-.1.6-.4.8s-.7.4-1.1.5c-.5.1-.9.2-1.4.3s-.9.2-1.2.2zm-2.5-7.8h3.7c0-.7-.1-1.3-.4-1.8s-.7-.7-1.3-.7c-.5 0-.9.2-1.3.5-.3.4-.5 1.1-.7 2z"/><path d="m125.7 37.5c-.9 0-1.4-.3-1.4-.8v-7.7c0-.8 0-1.4-.1-1.9 0-.4-.1-.8-.1-1s-.1-.4-.1-.6c0-.1.1-.3.3-.4s.5-.2.8-.2c.3-.1.6-.1.9-.1h.6c.2 0 .4.1.5.3s.2.4.2.6.1.5.1.7c.2-.5.6-.9.9-1.3.4-.4.9-.6 1.6-.6.6 0 .9.1 1.1.4.2.2.2.6.2.9 0 .1 0 .4-.1.7s-.1.6-.2.9-.2.4-.4.4-.3 0-.5-.1-.4-.1-.6-.1c-.3 0-.6.1-.8.2s-.5.3-.6.5c-.2.2-.3.4-.4.5v7.8c0 .5-.5.8-1.4.8h-.5z"/><path d="m135.6 37.7c-.6 0-1.1-.1-1.7-.2s-1.1-.3-1.5-.6c-.4-.2-.6-.5-.6-.9 0-.2.1-.5.2-.7.1-.3.3-.5.5-.8.2-.2.4-.3.5-.3s.3.1.5.2.5.2.8.3.7.2 1.1.2c.9 0 1.4-.3 1.4-1 0-.4-.2-.7-.5-.8s-.8-.4-1.3-.7c-.4-.2-.8-.4-1.2-.7s-.8-.6-1.1-1.1-.5-1.1-.5-2c0-.8.2-1.5.5-2.1s.8-1 1.5-1.4c.6-.3 1.4-.5 2.2-.5.4 0 .9 0 1.5.1.5.1 1 .2 1.4.4s.6.5.6.8c0 .2-.1.4-.2.7s-.2.6-.4.8c-.1.2-.3.4-.4.4s-.4-.1-.7-.3-.8-.3-1.4-.3c-.4 0-.7.1-.9.2s-.3.4-.3.7c0 .4.2.7.5.9.4.2.8.4 1.4.6.4.1.8.3 1.2.6s.8.6 1.1 1.1.5 1.1.5 2-.2 1.5-.5 2.2c-.4.6-.9 1.1-1.5 1.4s-1.8.8-2.7.8z"/></g><g fill="#e30613"><path d="m112.5 22.5c-.5 0-.9-.1-1.2-.3s-.6-.4-.8-.6c-.1.2-.1.3-.2.5-.1.1-.2.2-.3.2s-.3.1-.6.1h-.2c-.3 0-.6 0-.7-.1-.2-.1-.2-.2-.2-.4l1.2-11.7c0-.4.4-.5 1-.5h.4c.3 0 .6.1.7.2s.2.2.2.4l-.4 4.2c.2-.3.5-.5.8-.7s.7-.3 1.1-.3.8.1 1.2.2c.4.2.7.4.9.7.3.3.5.7.6 1.1.1.5.2 1 .2 1.6 0 1.1-.2 2-.5 2.8s-.8 1.4-1.4 1.9c-.3.5-1 .7-1.8.7zm-.5-2c.3 0 .6-.1.8-.2s.5-.4.6-.6c.2-.3.3-.6.4-1s.1-.9.1-1.4c0-.4-.1-.7-.2-1s-.3-.5-.5-.6-.5-.2-.8-.2c-.2 0-.3 0-.5.1-.1.1-.3.2-.4.3s-.2.3-.4.5l-.2 2.2c0 .2-.1.5-.1.7s-.1.5-.1.7c.1.1.3.2.4.3s.7.2.9.2z"/><path d="m121.9 13.5c.7 0 1.2.1 1.6.3s.7.4.9.6.4.5.4.8.1.5.1.7c0 .6-.1 1-.3 1.4s-.5.7-.8.9-.7.4-1.1.5-.8.2-1.2.2c-.5 0-.9 0-1.3-.1s-.7-.1-1-.2l.6-.8v.7c0 .5.1.9.2 1.2s.3.5.6.6.5.2.9.2.8-.1 1.2-.2.6-.2.9-.4c.2-.1.4-.2.4-.2h.1v.2.7c0 .3-.1.5-.1.6-.1.2-.2.4-.4.6s-.5.3-.7.4c-.3.1-.6.1-.9.2-.3 0-.5.1-.8.1-.7 0-1.2-.1-1.7-.3s-.9-.4-1.2-.7-.5-.7-.7-1.2c-.1-.5-.2-1-.2-1.5 0-1.3.2-2.3.6-3.1s.9-1.4 1.6-1.7c.8-.4 1.5-.5 2.3-.5zm-.2 1.9c-.5 0-.9.2-1.1.5-.3.4-.5.8-.6 1.3h.8c.3 0 .6 0 .8-.1s.4-.1.6-.2.3-.2.4-.3.1-.2.2-.3c0-.1.1-.2.1-.3 0-.3-.1-.5-.3-.6-.4.1-.6 0-.9 0z"/><path d="m128.4 22.5c-.3 0-.6 0-.9-.1s-.5-.2-.7-.4-.3-.5-.4-.8-.1-.7-.1-1.2l.4-4.4h-.4c-.3 0-.5-.3-.4-.8v-.3c.1-.6.3-.8.6-.8h.4l.3-1.5c0-.2.1-.4.3-.5s.4-.1.6-.1h.4c.3 0 .5.1.7.2.1.1.2.3.2.5l-.1 1.5h.7c.2 0 .3.1.4.2s.1.3 0 .6v.3c-.1.6-.3.8-.6.8h-.7l-.4 4.4c0 .2 0 .4.1.5s.2.2.4.2.3 0 .4-.1c.1 0 .2-.1.2-.1.1 0 .1.1.1.2v.3c0 .2 0 .4-.1.7s-.2.5-.5.7c-.3-.1-.6 0-.9 0z"/><path d="m133.7 22.5c-.4 0-.7-.1-1.1-.2-.3-.2-.6-.4-.8-.7s-.4-.7-.5-1.1c-.1-.5-.2-1-.2-1.6 0-1.1.1-2 .4-2.8s.7-1.4 1.3-1.9c.5-.5 1.2-.7 1.8-.7.5 0 .9.1 1.2.3s.6.4.8.6c.1-.2.1-.4.2-.5s.1-.2.3-.2c.1-.1.3-.1.6-.1h.2c.3 0 .6 0 .7.1.2.1.2.2.2.4l-.6 5.8c0 .2 0 .4.1.5s.2.1.4.1c.1 0 .2 0 .3-.1.1 0 .1-.1.2-.1s.1.1.1.2v.3c0 .2 0 .4-.1.7s-.2.5-.5.7-.6.2-.9.2c-.5 0-.9-.1-1.2-.3s-.5-.5-.6-1c-.2.4-.5.7-.9.9s-.9.5-1.4.5zm.9-2c.2 0 .3 0 .5-.1.1-.1.3-.2.4-.4s.2-.3.4-.5l.2-2.3c0-.3.1-.6.1-.8s.1-.4.1-.6c-.1-.1-.3-.2-.5-.3s-.4-.1-.6-.1c-.4 0-.7.1-.9.4-.3.3-.5.6-.6 1.1s-.2 1.1-.2 1.8c0 .4 0 .7.1 1s.2.5.4.6.4.2.6.2z"/></g></g></g></svg>