<svg height="33.196831" viewBox="0 0 53.859711 33.196831" width="53.859711" xmlns="http://www.w3.org/2000/svg" xmlns:xlink="http://www.w3.org/1999/xlink"><linearGradient id="a" gradientUnits="userSpaceOnUse" x1="48.52" x2="297.70999" y1="145.06" y2="145.06"><stop offset="0" stop-color="#f65c51"/><stop offset=".15" stop-color="#d9615e"/><stop offset=".46" stop-color="#906f7f"/><stop offset=".93" stop-color="#1c84b2"/><stop offset="1" stop-color="#0988bb"/></linearGradient><g transform="matrix(.2 0 0 .2 -7.678136 -7.42)"><path d="m83.8 79.6c0-17.6-2.1-21.3-2.1-24.8 0-4.2 15.3-5.7 19.7-5.7 5.7 0 6 7.1 7.1 11.4 3.7-6.6 8.9-13.4 19.2-13.4 8.6 0 10 6 10 9.5 0 3.4-2 14.8-5.4 14.8-2.5 0-4.8-1.4-8.3-1.4-7.2 0-12 5.3-14.1 8.8v56.5c0 3.7-3.2 5.7-10.6 5.7h-4.9c-7.4 0-10.6-2-10.6-5.7z" fill="#404040"/><path d="m145.2 55.4c-.3-1.1-.3-2-.3-2.6 0-4.8 14.6-4.2 14.6-4.2 4.7-.2 9.5.9 10.3 3.4l13.9 54.2 13.3-54.2c.5-2.5 4-3.7 9.7-3.7h4.2c4.9 0 9.2 1.2 9.7 3.7l13 54.2 14.3-54.2c.7-2.5 4-3.7 9.7-3.7h.7c7.5 0 10.9 1.7 10.9 4.6 0 .7-.2 1.6-.3 2.6l-20.8 81.8c-.7 2.5-4.8 3.7-9.7 3.7h-8.6c-5.7 0-8.9-1.2-9.7-3.7l-12.8-49.5-12 49.5c-.5 2.5-4.8 3.7-9.7 3.7h-8.6c-5.8 0-8.9-1.2-9.7-3.7z" fill="#404040"/><path d="m297.5 118.6c-1.5-11.5-15.7-20.3-24.5-21.5 3.2 2.4 6.6 4.6 9.5 7.3 4.9 4.7 7.1 10.4 5.3 17.2-1.6 6.6-5.7 11.6-10.5 16.1-11.1 10.5-24.4 17.4-38.4 23.1-25.2 10.3-51.5 16-78.6 18.5-17.8 1.6-35.5 1.4-53.1-1.8-10-1.8-19.7-4.5-28.1-10.5-8.5-6.1-11.3-13.5-8.5-22.2l-3.6-13.3-.1-.1c-3.8 2.9-11.1 8.9-15.5 17.4-5.5 10.4-3.4 20.3 5.8 27.8 8.3 6.8 18.2 10.1 28.6 12.4 21.9 4.8 44 4.8 66.2 2.9 24-2.1 47.4-6.7 70.2-14.2 19-6.2 37.2-13.7 53.5-25.3 6.9-4.9 13.1-10.4 17.6-17.6 3.2-5 5-10.3 4.2-16.2z" fill="url(#a)"/></g></svg>